<svg id="svg" xmlns="http://www.w3.org/2000/svg" xmlns:xlink="http://www.w3.org/1999/xlink" width="400" height="400" viewBox="0, 0, 400,400"><g id="svgg"><path id="path0" d="M189.295 5.189 C 185.033 10.324,116.706 320.576,116.626 335.156 C 116.543 350.294,120.171 361.343,129.048 372.981 L 132.972 378.125 89.533 378.116 C 34.979 378.105,29.687 376.757,29.687 362.863 C 29.688 349.598,37.556 347.833,66.282 354.658 C 90.627 360.442,95.312 359.330,95.312 347.771 C 95.313 336.919,44.788 325.381,28.893 332.602 C 4.078 343.875,2.577 380.653,26.418 393.239 L 33.304 396.875 111.652 396.875 C 197.322 396.875,193.750 397.288,193.750 387.379 C 193.750 379.893,192.012 378.724,178.906 377.398 C 155.172 374.996,138.958 360.428,136.450 339.251 C 135.744 333.291,199.549 38.385,202.332 34.744 C 202.505 34.517,207.158 37.357,212.672 41.054 C 238.538 58.399,273.590 57.504,297.081 38.899 C 300.485 36.204,303.473 34.259,303.722 34.577 C 306.331 37.910,369.518 327.584,369.459 335.938 C 369.304 357.810,352.881 374.972,329.593 377.598 C 317.412 378.971,315.625 380.241,315.625 387.519 C 315.625 397.087,320.232 399.365,335.306 397.250 C 369.643 392.432,392.805 364.200,390.094 330.469 C 389.070 317.718,319.472 8.222,316.944 5.176 C 312.469 -0.216,304.594 2.688,292.873 14.052 C 266.131 39.983,240.119 39.983,213.377 14.052 C 201.647 2.679,193.781 -0.216,189.295 5.189 M214.375 98.750 C 208.427 104.698,213.284 115.625,221.875 115.625 C 228.974 115.625,231.250 113.349,231.250 106.250 C 231.250 97.659,220.323 92.802,214.375 98.750 M276.875 98.750 C 270.927 104.698,275.784 115.625,284.375 115.625 C 291.474 115.625,293.750 113.349,293.750 106.250 C 293.750 97.659,282.823 92.802,276.875 98.750 M176.996 223.828 C 176.165 224.902,175.062 226.972,174.544 228.427 C 173.301 231.924,202.190 376.472,205.355 382.593 C 211.956 395.358,234.668 401.621,247.309 394.162 C 252.363 391.180,252.607 391.176,257.857 393.992 C 270.632 400.844,289.037 395.850,296.121 383.611 C 299.648 377.516,328.134 241.667,328.128 230.971 C 328.123 222.935,315.932 218.201,310.889 224.277 C 309.793 225.598,302.339 259.434,294.323 299.469 C 279.046 375.782,278.817 376.563,271.772 376.563 C 262.692 376.563,262.500 375.272,262.500 314.393 C 262.500 253.063,262.509 253.125,253.159 253.125 C 242.083 253.125,242.188 252.523,242.188 316.563 C 242.188 378.807,242.464 377.083,232.486 377.083 C 223.913 377.083,223.292 375.088,207.926 298.196 C 192.226 219.636,192.917 221.875,184.375 221.875 C 181.148 221.875,177.828 222.754,176.996 223.828 " stroke="none" fill="#000000" fill-rule="evenodd"></path></g></svg>