<?xml version="1.0" encoding="iso-8859-1"?>
<!-- Generator: Adobe Illustrator 19.0.0, SVG Export Plug-In . SVG Version: 6.00 Build 0)  -->
<svg version="1.1" id="Layer_1" xmlns="http://www.w3.org/2000/svg" xmlns:xlink="http://www.w3.org/1999/xlink" x="0px" y="0px" width="48" height="48"
	 viewBox="0 0 512 512" style="enable-background:new 0 0 512 512;" xml:space="preserve">
<g>
			<path d="M256,5.333C114.88,5.333,0,117.76,0,256s114.88,250.667,256,250.667S512,394.24,512,256S397.12,5.333,256,5.333z
				 M256,485.333C126.613,485.333,21.333,382.4,21.333,256S126.613,26.667,256,26.667S490.667,129.493,490.667,256
				S385.387,485.333,256,485.333z"/>
			<path d="M369.28,247.467l-181.653-133.44c-4.693-3.627-11.307-2.773-14.933,1.92c-3.627,4.693-2.773,11.307,1.92,14.933
				c0.107,0.107,0.32,0.213,0.427,0.32L344.96,256L175.04,380.693c-4.8,3.52-5.76,10.133-2.24,14.933
				c3.52,4.8,10.133,5.76,14.933,2.24L369.387,264.64c4.8-3.52,5.76-10.133,2.24-14.933
				C370.88,248.853,370.133,248.107,369.28,247.467z"/>
</g>
</svg>
