<svg width="26" height="24" viewBox="0 0 26 24" fill="none" xmlns="http://www.w3.org/2000/svg">
<path d="M10.2022 8.44861L13.1891 1.26733L16.1759 8.44861C16.2959 8.73714 16.5673 8.93428 16.8788 8.95925L24.6315 9.58079L18.7247 14.6406C18.4874 14.8439 18.3838 15.1629 18.4563 15.4668L20.2609 23.0322L13.6234 18.9781C13.3568 18.8152 13.0214 18.8152 12.7547 18.9781L6.1172 23.0322L7.92183 15.4668C7.99434 15.1629 7.89069 14.8439 7.65337 14.6406L1.74656 9.58079L9.49935 8.95925C9.81084 8.93428 10.0822 8.73714 10.2022 8.44861Z" stroke="black"/>
<path fill-rule="evenodd" clip-rule="evenodd" d="M26 0H0V24H26V0ZM13.4968 0.705323C13.383 0.431559 12.9951 0.431559 12.8813 0.705323L9.74053 8.25659C9.69253 8.372 9.58399 8.45086 9.4594 8.46085L1.30717 9.11441C1.01162 9.1381 0.891774 9.50694 1.11695 9.69983L7.32809 15.0203C7.42302 15.1016 7.46448 15.2292 7.43548 15.3508L5.53787 23.306C5.46908 23.5944 5.78283 23.8224 6.03586 23.6678L13.0153 19.4048C13.122 19.3397 13.2561 19.3397 13.3628 19.4048L20.3423 23.6678C20.5953 23.8224 20.909 23.5944 20.8402 23.306L18.9426 15.3508C18.9136 15.2292 18.9551 15.1016 19.05 15.0203L25.2612 9.69983C25.4863 9.50694 25.3665 9.1381 25.0709 9.11441L16.9187 8.46085C16.7941 8.45086 16.6856 8.372 16.6376 8.25659L13.4968 0.705323Z" fill="#EFF0F3"/>
</svg>
