<svg width="132" height="24" viewBox="0 0 132 24" fill="none" xmlns="http://www.w3.org/2000/svg">
<path fill-rule="evenodd" clip-rule="evenodd" d="M132 0H0V24H132V0ZM13.1284 1.10996C12.9576 0.699318 12.3759 0.699318 12.2051 1.10996L9.2573 8.19725C9.1853 8.37037 9.02249 8.48865 8.8356 8.50364L1.18428 9.11704C0.74095 9.15258 0.561187 9.70583 0.898956 9.99517L6.72846 14.9888C6.87085 15.1107 6.93304 15.3021 6.88953 15.4845L5.10852 22.9509C5.00533 23.3835 5.47596 23.7254 5.85551 23.4936L12.4061 19.4925C12.5661 19.3948 12.7674 19.3948 12.9274 19.4925L19.478 23.4936C19.8575 23.7254 20.3281 23.3835 20.2249 22.9509L18.4439 15.4845C18.4004 15.3021 18.4626 15.1107 18.605 14.9888L24.4345 9.99517C24.7723 9.70583 24.5925 9.15258 24.1492 9.11704L16.4979 8.50364C16.311 8.48865 16.1482 8.37037 16.0762 8.19725L13.1284 1.10996ZM38.8717 1.10996C39.0425 0.699318 39.6242 0.699318 39.795 1.10996L42.7428 8.19725C42.8148 8.37037 42.9776 8.48865 43.1645 8.50364L50.8158 9.11704C51.2591 9.15258 51.4389 9.70583 51.1011 9.99517L45.2716 14.9888C45.1292 15.1107 45.067 15.3021 45.1105 15.4845L46.8915 22.9509C46.9947 23.3835 46.5241 23.7254 46.1446 23.4936L39.594 19.4925C39.434 19.3948 39.2327 19.3948 39.0727 19.4925L32.5221 23.4936C32.1426 23.7254 31.6719 23.3835 31.7751 22.9509L33.5561 15.4845C33.5996 15.3021 33.5375 15.1107 33.3951 14.9888L27.5656 9.99517C27.2278 9.70583 27.4076 9.15258 27.8509 9.11704L35.5022 8.50364C35.6891 8.48865 35.8519 8.37037 35.9239 8.19725L38.8717 1.10996ZM66.4617 1.10996C66.2909 0.699318 65.7092 0.699318 65.5384 1.10996L62.5906 8.19725C62.5186 8.37037 62.3558 8.48865 62.1689 8.50364L54.5176 9.11704C54.0742 9.15258 53.8945 9.70583 54.2323 9.99517L60.0618 14.9888C60.2042 15.1107 60.2663 15.3021 60.2228 15.4845L58.4418 22.9509C58.3386 23.3835 58.8093 23.7254 59.1888 23.4936L65.7394 19.4925C65.8994 19.3948 66.1006 19.3948 66.2607 19.4925L72.8113 23.4936C73.1908 23.7254 73.6614 23.3835 73.5582 22.9509L71.7772 15.4845C71.7337 15.3021 71.7959 15.1107 71.9383 14.9888L77.7678 9.99517C78.1056 9.70583 77.9258 9.15258 77.4825 9.11704L69.8312 8.50364C69.6443 8.48865 69.4815 8.37037 69.4095 8.19725L66.4617 1.10996ZM92.205 1.10996C92.3758 0.699318 92.9575 0.699318 93.1283 1.10996L96.0761 8.19725C96.1481 8.37037 96.3109 8.48865 96.4978 8.50364L104.149 9.11704C104.592 9.15258 104.772 9.70583 104.434 9.99517L98.6049 14.9888C98.4625 15.1107 98.4003 15.3021 98.4438 15.4845L100.225 22.9509C100.328 23.3835 99.8574 23.7254 99.4779 23.4936L92.9273 19.4925C92.7673 19.3948 92.566 19.3948 92.406 19.4925L85.8554 23.4936C85.4759 23.7254 85.0052 23.3835 85.1084 22.9509L86.8894 15.4845C86.9329 15.3021 86.8708 15.1107 86.7284 14.9888L80.8989 9.99517C80.5611 9.70583 80.7409 9.15258 81.1842 9.11704L88.8355 8.50364C89.0224 8.48865 89.1852 8.37037 89.2572 8.19725L92.205 1.10996ZM119.795 1.10996C119.624 0.699318 119.042 0.699318 118.872 1.10996L115.924 8.19725C115.852 8.37037 115.689 8.48865 115.502 8.50364L107.851 9.11704C107.408 9.15258 107.228 9.70583 107.566 9.99517L113.395 14.9888C113.537 15.1107 113.6 15.3021 113.556 15.4845L111.775 22.9509C111.672 23.3835 112.143 23.7254 112.522 23.4936L119.073 19.4925C119.233 19.3948 119.434 19.3948 119.594 19.4925L126.145 23.4936C126.524 23.7254 126.995 23.3835 126.892 22.9509L125.111 15.4845C125.067 15.3021 125.129 15.1107 125.272 14.9888L131.101 9.99517C131.439 9.70583 131.259 9.15258 130.816 9.11704L123.164 8.50364C122.978 8.48865 122.815 8.37037 122.743 8.19725L119.795 1.10996Z" fill="#EFF0F3"/>
<path d="M9.67985 8.48328L12.6667 1.30199L15.6536 8.48328C15.7736 8.77181 16.0449 8.96895 16.3564 8.99392L24.1092 9.61546L18.2024 14.6753C17.9651 14.8786 17.8614 15.1975 17.9339 15.5015L19.7386 23.0669L13.1011 19.0128C12.8344 18.8499 12.499 18.8499 12.2323 19.0128L5.59486 23.0669L7.39949 15.5015C7.472 15.1975 7.36835 14.8786 7.13103 14.6753L1.22422 9.61546L8.97701 8.99392C9.2885 8.96895 9.55985 8.77181 9.67985 8.48328Z" stroke="black"/>
<path d="M63.0131 8.48328L66 1.30199L68.9868 8.48328C69.1068 8.77181 69.3782 8.96895 69.6897 8.99392L77.4425 9.61546L71.5357 14.6753C71.2983 14.8786 71.1947 15.1975 71.2672 15.5015L73.0718 23.0669L66.4343 19.0128C66.1677 18.8499 65.8323 18.8499 65.5656 19.0128L58.9281 23.0669L60.7327 15.5015C60.8052 15.1975 60.7016 14.8786 60.4643 14.6753L54.5575 9.61546L62.3103 8.99392C62.6218 8.96895 62.8931 8.77181 63.0131 8.48328Z" stroke="black"/>
<path d="M36.3465 8.48328L39.3333 1.30199L42.3202 8.48328C42.4402 8.77181 42.7116 8.96895 43.023 8.99392L50.7758 9.61546L44.869 14.6753C44.6317 14.8786 44.5281 15.1975 44.6006 15.5015L46.4052 23.0669L39.7677 19.0128C39.501 18.8499 39.1656 18.8499 38.899 19.0128L32.2615 23.0669L34.0661 15.5015C34.1386 15.1975 34.035 14.8786 33.7977 14.6753L27.8908 9.61546L35.6436 8.99392C35.9551 8.96895 36.2265 8.77181 36.3465 8.48328Z" stroke="black"/>
<path d="M116.346 8.48328L119.333 1.30199L122.32 8.48328C122.44 8.77181 122.712 8.96895 123.023 8.99392L130.776 9.61546L124.869 14.6753C124.632 14.8786 124.528 15.1975 124.601 15.5015L126.405 23.0669L119.768 19.0128C119.501 18.8499 119.166 18.8499 118.899 19.0128L112.261 23.0669L114.066 15.5015C114.139 15.1975 114.035 14.8786 113.798 14.6753L107.891 9.61546L115.644 8.99392C115.955 8.96895 116.226 8.77181 116.346 8.48328Z" stroke="black"/>
<path d="M89.6799 8.48328L92.6667 1.30199L95.6536 8.48328C95.7736 8.77181 96.0449 8.96895 96.3564 8.99392L104.109 9.61546L98.2024 14.6753C97.9651 14.8786 97.8614 15.1975 97.9339 15.5015L99.7386 23.0669L93.1011 19.0128C92.8344 18.8499 92.499 18.8499 92.2323 19.0128L85.5949 23.0669L87.3995 15.5015C87.472 15.1975 87.3684 14.8786 87.131 14.6753L81.2242 9.61546L88.977 8.99392C89.2885 8.96895 89.5598 8.77181 89.6799 8.48328Z" stroke="black"/>
</svg>
